<svg width="832" height="247" viewBox="0 0 832 247" fill="none" xmlns="http://www.w3.org/2000/svg">
<path d="M95.8144 68.0547C74.2224 104.928 53.5301 141.802 31.9381 178.675C31.0385 177.776 30.1388 176.877 30.1388 175.977C20.2425 159.789 11.2458 143.6 1.3495 126.513C-0.449833 123.815 -0.449833 121.117 1.3495 118.419C10.3462 103.13 19.3428 87.8405 27.4398 72.5515C29.2391 68.954 31.9381 68.0547 36.4365 68.0547C54.4298 68.0547 72.4231 68.0547 90.4164 68.0547C92.2157 68.0547 93.1154 68.0547 95.8144 68.0547Z" fill="#FF7F26"/>
<path d="M237.062 67.1562C237.961 68.955 238.861 69.8543 239.761 70.7537C248.757 86.942 257.754 102.231 267.65 118.419C269.45 122.017 269.45 124.715 267.65 127.413C258.654 142.702 249.657 157.991 241.56 173.28C239.761 175.978 237.961 177.777 235.262 177.777C216.369 177.777 196.577 177.777 177.684 177.777C176.784 177.777 176.784 177.777 174.985 177.777C193.878 140.903 215.47 104.03 237.062 67.1562Z" fill="#1E2E3F"/>
<path d="M106.611 184.073C148.895 184.073 191.179 184.073 233.463 184.073C230.764 189.469 228.065 193.966 224.467 199.362C217.269 211.053 210.072 223.644 203.775 235.336C201.975 238.034 200.176 238.933 197.477 238.933C179.484 238.933 160.591 238.933 142.597 238.933C139.898 238.933 137.199 238.034 136.3 235.336C127.303 219.148 117.407 202.959 108.41 186.771C107.51 186.771 107.51 185.871 106.611 184.073Z" fill="#FF7F26"/>
<path d="M137.199 6C138.998 6 139.898 6 141.697 6C159.691 6 177.684 6 195.677 6C199.276 6 201.975 7.79871 203.774 10.4968C212.771 25.7858 220.868 41.0748 229.865 56.3639C231.664 59.0619 231.664 61.76 229.865 64.4581C219.968 81.5458 210.072 98.6335 201.075 114.822C201.075 114.822 201.075 114.822 200.176 115.721C179.483 79.7471 158.791 42.8735 137.199 6Z" fill="#FF7F26"/>
<path d="M35.5366 60.8606C36.4363 59.0619 36.4363 58.1626 37.3359 57.2632C46.3326 41.9742 55.3293 25.7858 64.3259 10.4968C66.1252 6.89935 68.8242 6 72.4229 6C89.5166 6 107.51 6 124.604 6C128.202 6 130.901 6.89935 132.701 10.4968C142.597 27.5845 152.493 43.7729 162.389 61.76C120.105 60.8606 77.8209 60.8606 35.5366 60.8606Z" fill="#1E2E3F"/>
<path d="M130.901 239.832C128.202 239.832 126.403 239.832 123.704 239.832C105.711 239.832 88.617 239.832 70.6237 239.832C67.9247 239.832 65.2257 238.933 64.326 236.235C55.3294 220.946 46.3327 205.657 37.3361 189.468C35.5367 186.77 35.5367 184.072 37.3361 180.475C46.3327 164.286 55.3294 148.098 65.2257 131.909C66.1254 131.01 66.1254 130.111 67.0251 128.312C88.617 166.085 109.309 202.059 130.901 239.832Z" fill="#1E2E3F"/>
<path d="M400.98 194.04C390.213 194.04 380.84 192.077 372.86 188.15C365.007 184.223 358.8 178.777 354.24 171.81C349.68 164.843 347.02 156.737 346.26 147.49L367.35 146.16C368.237 152.493 370.073 157.877 372.86 162.31C375.647 166.617 379.383 169.91 384.07 172.19C388.883 174.343 394.647 175.42 401.36 175.42C407.187 175.42 412.127 174.723 416.18 173.33C420.36 171.81 423.527 169.593 425.68 166.68C427.833 163.767 428.91 160.22 428.91 156.04C428.91 152.24 427.96 148.883 426.06 145.97C424.287 142.93 420.803 140.207 415.61 137.8C410.543 135.267 403.07 132.797 393.19 130.39C382.423 127.73 373.81 124.817 367.35 121.65C360.89 118.483 356.203 114.557 353.29 109.87C350.503 105.057 349.11 99.1667 349.11 92.2C349.11 84.4733 350.947 77.6967 354.62 71.87C358.42 65.9167 363.803 61.2933 370.77 58C377.737 54.7067 386.097 53.06 395.85 53.06C406.11 53.06 414.85 54.96 422.07 58.76C429.417 62.56 435.18 67.7533 439.36 74.34C443.667 80.9267 446.327 88.4633 447.34 96.95L426.25 98.09C425.617 92.8967 424.033 88.3367 421.5 84.41C418.967 80.3567 415.547 77.2533 411.24 75.1C406.933 72.82 401.677 71.68 395.47 71.68C387.617 71.68 381.41 73.5167 376.85 77.19C372.417 80.7367 370.2 85.4867 370.2 91.44C370.2 95.24 371.087 98.47 372.86 101.13C374.76 103.663 378.053 105.88 382.74 107.78C387.553 109.68 394.33 111.707 403.07 113.86C414.723 116.52 423.97 119.813 430.81 123.74C437.777 127.54 442.717 132.037 445.63 137.23C448.543 142.423 450 148.313 450 154.9C450 162.88 447.91 169.847 443.73 175.8C439.677 181.627 433.977 186.123 426.63 189.29C419.283 192.457 410.733 194.04 400.98 194.04ZM470.073 191V56.1H520.423C535.877 56.1 547.91 59.8367 556.523 67.31C565.137 74.6567 569.443 84.9167 569.443 98.09C569.443 106.83 567.48 114.43 563.553 120.89C559.627 127.223 553.99 132.1 546.643 135.52C539.423 138.813 530.683 140.46 520.423 140.46H490.593V191H470.073ZM490.593 121.84H519.853C529.1 121.84 536.13 119.877 540.943 115.95C545.757 111.897 548.163 105.943 548.163 98.09C548.163 90.3633 545.757 84.6 540.943 80.8C536.13 76.8733 529.1 74.91 519.853 74.91H490.593V121.84ZM640.736 194.04C630.096 194.04 620.786 192.013 612.806 187.96C604.953 183.78 598.873 177.89 594.566 170.29C590.386 162.69 588.296 153.697 588.296 143.31V55.91H608.816V143.31C608.816 153.57 611.603 161.487 617.176 167.06C622.75 172.507 630.603 175.23 640.736 175.23C650.87 175.23 658.723 172.507 664.296 167.06C669.87 161.487 672.656 153.57 672.656 143.31V55.91H693.176V143.31C693.176 153.697 691.023 162.69 686.716 170.29C682.536 177.89 676.52 183.78 668.666 187.96C660.813 192.013 651.503 194.04 640.736 194.04ZM722.053 191V56.1H775.823C785.45 56.1 793.747 57.7467 800.713 61.04C807.68 64.3333 813.063 69.02 816.863 75.1C820.663 81.18 822.563 88.4 822.563 96.76C822.563 102.84 821.17 108.287 818.383 113.1C815.723 117.913 812.113 121.777 807.553 124.69C803.12 127.477 798.37 129.06 793.303 129.44L792.353 127.73C800.84 127.73 807.427 129.693 812.113 133.62C816.8 137.42 819.523 143.437 820.283 151.67L823.893 191H803.183L799.953 154.33C799.573 148.883 797.737 144.893 794.443 142.36C791.15 139.7 785.767 138.37 778.293 138.37H742.573V191H722.053ZM742.573 119.56H776.203C783.93 119.56 790.01 117.66 794.443 113.86C799.003 109.933 801.283 104.423 801.283 97.33C801.283 90.11 799.003 84.6 794.443 80.8C789.883 76.8733 783.233 74.91 774.493 74.91H742.573V119.56Z" fill="#1E2E3F"/>
</svg>
