<svg width="29" height="29" viewBox="0 0 29 29" fill="none" xmlns="http://www.w3.org/2000/svg">
<g clip-path="url(#clip0_170_1181)">
<path d="M24.3087 5.34819C22.524 4.52933 20.6103 3.92603 18.6094 3.58049C18.5729 3.57382 18.5365 3.59049 18.5177 3.62382C18.2716 4.06157 17.999 4.63265 17.8081 5.08152C15.6559 4.75932 13.5148 4.75932 11.4068 5.08152C11.2159 4.62267 10.9334 4.06157 10.6861 3.62382C10.6674 3.5916 10.631 3.57493 10.5945 3.58049C8.5947 3.92492 6.68096 4.52822 4.89523 5.34819C4.87977 5.35485 4.86652 5.36598 4.85772 5.38041C1.22776 10.8035 0.23336 16.0933 0.721179 21.3175C0.723386 21.3431 0.737734 21.3675 0.7576 21.383C3.15255 23.1418 5.47246 24.2096 7.74929 24.9173C7.78573 24.9284 7.82434 24.9151 7.84753 24.8851C8.38612 24.1496 8.86622 23.3741 9.27786 22.5585C9.30215 22.5108 9.27896 22.4541 9.22931 22.4352C8.46779 22.1463 7.74267 21.7941 7.04515 21.3942C6.98998 21.3619 6.98556 21.283 7.03632 21.2452C7.1831 21.1353 7.32993 21.0208 7.47008 20.9053C7.49544 20.8842 7.53078 20.8797 7.56059 20.893C12.143 22.9852 17.1039 22.9852 21.6322 20.893C21.6621 20.8786 21.6974 20.8831 21.7239 20.9042C21.8641 21.0197 22.0108 21.1353 22.1587 21.2452C22.2095 21.283 22.2062 21.3619 22.151 21.3942C21.4535 21.8019 20.7284 22.1463 19.9657 22.4341C19.9161 22.453 19.894 22.5108 19.9183 22.5585C20.3388 23.3729 20.8189 24.1485 21.3475 24.884C21.3696 24.9151 21.4093 24.9284 21.4458 24.9173C23.7336 24.2096 26.0535 23.1418 28.4485 21.383C28.4695 21.3675 28.4827 21.3442 28.4849 21.3186C29.0687 15.2788 27.507 10.0324 24.3451 5.38151C24.3373 5.36598 24.3241 5.35485 24.3087 5.34819ZM9.96216 18.1365C8.58255 18.1365 7.44579 16.8699 7.44579 15.3144C7.44579 13.7589 8.56051 12.4923 9.96216 12.4923C11.3748 12.4923 12.5006 13.77 12.4785 15.3144C12.4785 16.8699 11.3638 18.1365 9.96216 18.1365ZM19.266 18.1365C17.8864 18.1365 16.7497 16.8699 16.7497 15.3144C16.7497 13.7589 17.8644 12.4923 19.266 12.4923C20.6787 12.4923 21.8044 13.77 21.7824 15.3144C21.7824 16.8699 20.6787 18.1365 19.266 18.1365Z" fill="#DEEBFF"/>
</g>
<defs>
<clipPath id="clip0_170_1181">
<rect width="28" height="28" fill="white" transform="translate(0.605469 0.5)"/>
</clipPath>
</defs>
</svg>
