<svg width="29" height="29" viewBox="0 0 29 29" fill="none" xmlns="http://www.w3.org/2000/svg">
<g clip-path="url(#clip0_96_2440)">
<path d="M14.6055 3.02109C18.3461 3.02109 18.7891 3.0375 20.2602 3.10312C21.6273 3.16328 22.3656 3.39297 22.8578 3.58438C23.5086 3.83594 23.9789 4.14219 24.4656 4.62891C24.9578 5.12109 25.2586 5.58594 25.5102 6.23672C25.7016 6.72891 25.9313 7.47266 25.9914 8.83437C26.057 10.3109 26.0734 10.7539 26.0734 14.4891C26.0734 18.2297 26.057 18.6727 25.9914 20.1438C25.9313 21.5109 25.7016 22.2492 25.5102 22.7414C25.2586 23.3922 24.9523 23.8625 24.4656 24.3492C23.9734 24.8414 23.5086 25.1422 22.8578 25.3938C22.3656 25.5852 21.6219 25.8148 20.2602 25.875C18.7836 25.9406 18.3406 25.957 14.6055 25.957C10.8648 25.957 10.4219 25.9406 8.95078 25.875C7.58359 25.8148 6.84531 25.5852 6.35313 25.3938C5.70234 25.1422 5.23203 24.8359 4.74531 24.3492C4.25312 23.857 3.95234 23.3922 3.70078 22.7414C3.50937 22.2492 3.27969 21.5055 3.21953 20.1438C3.15391 18.6672 3.1375 18.2242 3.1375 14.4891C3.1375 10.7484 3.15391 10.3055 3.21953 8.83437C3.27969 7.46719 3.50937 6.72891 3.70078 6.23672C3.95234 5.58594 4.25859 5.11562 4.74531 4.62891C5.2375 4.13672 5.70234 3.83594 6.35313 3.58438C6.84531 3.39297 7.58906 3.16328 8.95078 3.10312C10.4219 3.0375 10.8648 3.02109 14.6055 3.02109ZM14.6055 0.5C10.8047 0.5 10.3289 0.516406 8.83594 0.582031C7.34844 0.647656 6.32578 0.888281 5.43984 1.23281C4.51563 1.59375 3.73359 2.06953 2.95703 2.85156C2.175 3.62812 1.69922 4.41016 1.33828 5.32891C0.99375 6.22031 0.753125 7.2375 0.6875 8.725C0.621875 10.2234 0.605469 10.6992 0.605469 14.5C0.605469 18.3008 0.621875 18.7766 0.6875 20.2695C0.753125 21.757 0.99375 22.7797 1.33828 23.6656C1.69922 24.5898 2.175 25.3719 2.95703 26.1484C3.73359 26.925 4.51563 27.4062 5.43438 27.7617C6.32578 28.1062 7.34297 28.3469 8.83047 28.4125C10.3234 28.4781 10.7992 28.4945 14.6 28.4945C18.4008 28.4945 18.8766 28.4781 20.3695 28.4125C21.857 28.3469 22.8797 28.1062 23.7656 27.7617C24.6844 27.4062 25.4664 26.925 26.243 26.1484C27.0195 25.3719 27.5008 24.5898 27.8562 23.6711C28.2008 22.7797 28.4414 21.7625 28.507 20.275C28.5727 18.782 28.5891 18.3063 28.5891 14.5055C28.5891 10.7047 28.5727 10.2289 28.507 8.73594C28.4414 7.24844 28.2008 6.22578 27.8562 5.33984C27.5117 4.41016 27.0359 3.62812 26.2539 2.85156C25.4773 2.075 24.6953 1.59375 23.7766 1.23828C22.8852 0.89375 21.868 0.653125 20.3805 0.5875C18.882 0.516406 18.4063 0.5 14.6055 0.5Z" fill="#DEEBFF"/>
<path d="M14.6055 7.30859C10.6352 7.30859 7.41406 10.5297 7.41406 14.5C7.41406 18.4703 10.6352 21.6914 14.6055 21.6914C18.5758 21.6914 21.7969 18.4703 21.7969 14.5C21.7969 10.5297 18.5758 7.30859 14.6055 7.30859ZM14.6055 19.1648C12.0297 19.1648 9.94062 17.0758 9.94062 14.5C9.94062 11.9242 12.0297 9.83516 14.6055 9.83516C17.1812 9.83516 19.2703 11.9242 19.2703 14.5C19.2703 17.0758 17.1812 19.1648 14.6055 19.1648Z" fill="#DEEBFF"/>
<path d="M23.7602 7.02415C23.7602 7.95384 23.0055 8.70306 22.0812 8.70306C21.1516 8.70306 20.4023 7.94837 20.4023 7.02415C20.4023 6.09447 21.157 5.34525 22.0812 5.34525C23.0055 5.34525 23.7602 6.09993 23.7602 7.02415Z" fill="#DEEBFF"/>
</g>
<defs>
<clipPath id="clip0_96_2440">
<rect width="28" height="28" fill="white" transform="translate(0.605469 0.5)"/>
</clipPath>
</defs>
</svg>
