<svg width="29" height="29" viewBox="0 0 29 29" fill="none" xmlns="http://www.w3.org/2000/svg">
<g clip-path="url(#clip0_96_2439)">
<path d="M26.5328 0.5H2.67266C1.52969 0.5 0.605469 1.40234 0.605469 2.51797V26.4766C0.605469 27.5922 1.52969 28.5 2.67266 28.5H26.5328C27.6758 28.5 28.6055 27.5922 28.6055 26.482V2.51797C28.6055 1.40234 27.6758 0.5 26.5328 0.5ZM8.9125 24.3602H4.75625V10.9945H8.9125V24.3602ZM6.83438 9.17344C5.5 9.17344 4.42266 8.09609 4.42266 6.76719C4.42266 5.43828 5.5 4.36094 6.83438 4.36094C8.16328 4.36094 9.24062 5.43828 9.24062 6.76719C9.24062 8.09062 8.16328 9.17344 6.83438 9.17344ZM24.4656 24.3602H20.3148V17.8633C20.3148 16.3156 20.2875 14.3195 18.1547 14.3195C15.9945 14.3195 15.6664 16.0094 15.6664 17.7539V24.3602H11.5211V10.9945H15.5023V12.8211H15.557C16.1094 11.7711 17.4656 10.6609 19.4836 10.6609C23.6891 10.6609 24.4656 13.4281 24.4656 17.0266V24.3602V24.3602Z" fill="#DEEBFF"/>
</g>
<defs>
<clipPath id="clip0_96_2439">
<rect width="28" height="28" fill="white" transform="translate(0.605469 0.5)"/>
</clipPath>
</defs>
</svg>
