<svg width="779" height="86" viewBox="0 0 779 86" fill="none" xmlns="http://www.w3.org/2000/svg">
<path d="M45.2061 0.678088C38.7166 0.678088 32.699 1.7432 27.1535 3.87412C21.7258 6.00504 17.0063 8.96468 12.9945 12.7531C9.10074 16.3046 6.03315 20.803 3.79131 26.2489C1.90341 30.866 0.841524 35.8972 0.605469 41.3428V46.6702H16.1801V41.3428C16.416 37.3176 17.0651 34.0622 18.127 31.576C19.5428 28.1429 21.4897 25.0651 23.9674 22.3423C26.9172 19.6195 29.985 17.607 33.1706 16.3048C36.8283 14.8842 40.8401 14.1739 45.2058 14.1739H67.506V0.678088H45.2061ZM51.9321 40.6325L51.9322 44.0063H52.1092C51.8733 47.7944 51.1654 51.2868 49.9854 54.4833C48.4515 58.1533 46.5046 61.172 44.145 63.5398C41.549 66.1444 38.4815 68.1569 34.9418 69.5775C31.284 70.9981 27.2722 71.7084 22.9066 71.7084H0.606377V85.2042H22.9066C29.3961 85.2042 35.4136 84.1387 40.9591 82.0077C46.3868 79.8768 51.1063 76.9171 55.1181 73.1288C59.2477 68.9854 62.3153 64.4869 64.3211 59.6332C66.4449 54.8977 67.507 49.6889 67.507 44.0065V40.6325H51.9321ZM155.114 17.3708C153.581 14.0559 151.457 11.0963 148.743 8.4919C145.911 6.00572 142.548 4.05255 138.655 2.63194C134.407 1.32977 129.924 0.678588 125.204 0.678588H92.1086V13.9969H123.967C129.277 13.9969 133.701 15.299 137.241 17.9037C140.545 20.3898 142.196 24.178 142.196 29.2685C142.196 33.8856 140.604 37.6147 137.418 40.4559C133.996 43.1787 129.513 44.5402 123.967 44.5402H92.1088V85.2061H106.799V58.0372H123.435C127.801 58.0372 132.225 57.386 136.709 56.0838C140.839 54.7816 144.378 52.9467 147.328 50.5791C150.396 48.2116 152.815 45.1926 154.585 41.5227C156.354 37.9711 157.239 33.8277 157.239 29.0922C157.239 24.5938 156.53 20.6857 155.114 17.3708ZM235.996 0.500795V48.8016C235.996 56.6149 234.108 62.4158 230.333 66.2042C228.327 68.4535 225.554 70.1109 222.014 71.1763V85.0274C224.846 84.6722 227.324 84.0803 229.448 83.2516C233.813 81.7125 237.589 79.4041 240.775 76.3261C243.961 72.893 246.32 68.9271 247.854 64.4286C249.624 59.8115 250.509 54.3659 250.509 48.0916V0.5L235.996 0.500795ZM194.759 0.678088V48.9789C194.759 56.5556 196.647 62.3565 200.423 66.3814C202.664 68.6308 205.437 70.2289 208.741 71.1761V85.2046C206.735 84.9679 204.258 84.3761 201.308 83.4291C196.824 81.7718 193.107 79.4041 190.158 76.3262C186.854 73.2484 184.435 69.3416 182.901 64.6061C181.249 60.3443 180.423 54.8984 180.423 48.2691V0.677474L194.759 0.678088ZM341.655 85.2049L318.824 53.24C321.892 52.293 324.605 51.1684 326.965 49.8662C329.561 48.2089 331.685 46.374 333.337 44.3615C335.224 42.1122 336.581 39.6853 337.408 37.0807C338.469 34.2395 339 31.043 339 27.4915C339 23.3481 338.292 19.619 336.877 16.3041C335.461 13.1076 333.396 10.3257 330.682 7.95798C328.086 5.70862 324.783 3.93276 320.771 2.63058C316.641 1.32841 312.275 0.677224 307.674 0.677224H270.152V14.173H306.435C311.98 14.173 316.287 15.3569 319.354 17.7245C322.422 20.0922 323.956 23.6436 323.956 28.3791C323.956 32.7594 322.422 36.1925 319.354 38.6787C316.287 41.2833 312.039 42.5855 306.611 42.5855H270.152V85.2038H284.842V55.7255H303.425L324.132 85.2038L341.655 85.2049Z" fill="#DEEBFF"/>
<path d="M426.428 85.3821V0.854745L411.738 0.895024V43.2077H400.499V56.526H411.738V85.3821H426.428Z" fill="#DEEBFF"/>
<path d="M375.987 85.3821H361.297V43.2077V1.03333L375.987 0.993054V43.2077H387.226V56.526H375.987V85.3821Z" fill="#DEEBFF"/>
<path d="M512.796 16.4813C514.212 19.7962 514.92 23.5253 514.92 27.6687V85.3819L499.875 85.3821V55.9028H479.344H460.761V85.381H446.071V42.7627V29.2669H460.761V42.7627H482.53H499.875V28.5563C499.875 23.8208 498.341 20.2694 495.273 17.9018C492.206 15.5341 487.899 14.3502 482.354 14.3502H446.071V0.854428H483.593C488.195 0.854428 492.56 1.50561 496.69 2.80778C500.702 4.10997 504.005 5.88582 506.601 8.13518C509.315 10.5029 511.38 13.2848 512.796 16.4813Z" fill="#DEEBFF"/>
<path d="M561.11 3.72472C566.656 1.59381 572.673 0.528689 579.163 0.528689H601.463V14.0245H579.162C574.797 14.0245 570.785 14.7348 567.127 16.1554C563.942 17.4576 560.874 19.4701 557.924 22.1929C556.082 24.2168 554.534 26.4368 553.279 28.8531H536.736C537.042 27.9194 537.379 27.0015 537.748 26.0995C539.99 20.6536 543.057 16.1552 546.951 12.6037C550.963 8.81528 555.683 5.85564 561.11 3.72472Z" fill="#DEEBFF"/>
<path d="M561.11 82.304C566.656 84.4349 572.673 85.5 579.163 85.5H601.463V72.0042H579.162C574.797 72.0042 570.785 71.2939 567.127 69.8733C563.942 68.5711 560.874 66.5586 557.924 63.8358C555.446 61.113 553.5 58.0352 552.084 54.6021C551.022 52.1159 550.373 48.8605 550.137 44.8353V42.3489H534.562L534.562 44.8371C534.798 50.282 535.86 55.3127 537.748 59.9292C539.99 65.3751 543.057 69.8735 546.951 73.425C550.963 77.2134 555.683 80.173 561.11 82.304Z" fill="#DEEBFF"/>
<path d="M620.832 85.4989V42.8806L620.832 29.3848H635.522V42.8806L643.962 42.8806L674.812 0.973413L692.335 0.972326L661.523 42.3609L671.279 56.0206L692.335 85.5L674.812 85.4989L654.105 56.0206H635.522V85.4989H620.832Z" fill="#DEEBFF"/>
<path d="M635.522 14.4681H620.832L620.832 0.972326H635.522V14.4681Z" fill="#DEEBFF"/>
<path d="M738.252 4.16989C743.797 2.03897 749.815 0.973854 756.305 0.973854H778.604V14.4697H756.304C751.939 14.4697 747.927 15.18 744.269 16.6006C741.083 17.9028 738.016 19.9153 735.066 22.6381C732.588 25.3609 730.641 28.4387 729.225 31.8718C728.164 34.358 727.515 37.6133 727.279 41.6386V46.966H711.704V41.6386C711.94 36.193 713.002 31.1617 714.89 26.5446C717.132 21.0988 720.199 16.6003 724.093 13.0488C728.105 9.26045 732.824 6.3008 738.252 4.16989Z" fill="#DEEBFF"/>
<path d="M763.031 44.302L763.031 40.9282H778.605V44.3022C778.605 49.9847 777.543 55.1934 775.42 59.929C773.414 64.7827 770.346 69.2811 766.217 73.4245C762.205 77.2129 757.485 80.1726 752.058 82.3035C746.512 84.4345 740.495 85.5 734.005 85.5H711.705V72.0042H734.005C738.371 72.0042 742.383 71.2938 746.04 69.8732C749.58 68.4526 752.648 66.4401 755.243 63.8355C757.603 61.4678 759.55 58.449 761.084 54.7791C762.264 51.5826 762.972 48.0902 763.208 44.302H763.031Z" fill="#DEEBFF"/>
</svg>
