<svg width="354" height="89" viewBox="0 0 354 89" fill="none" xmlns="http://www.w3.org/2000/svg">
<path d="M13.1987 13.2415L13.1987 13.2416L13.205 13.2356C17.3198 9.30234 22.1626 6.2269 27.7391 4.01049C33.4319 1.79644 39.6153 0.687116 46.2942 0.687116H68.941V13.8671H46.294C41.7068 13.8671 37.4798 14.6227 33.6188 16.1407L33.6188 16.1406L33.6106 16.144C30.2399 17.5387 27.006 19.6892 23.9077 22.5842L23.8918 22.5991L23.8772 22.6152C21.2671 25.5188 19.216 28.8011 17.725 32.4598C16.5932 35.1434 15.9135 38.6249 15.6669 42.8843L15.6661 42.8987V42.9132V48.0107H0.5V42.9239C0.743713 37.2582 1.83523 32.0323 3.77018 27.242C6.07289 21.58 9.21743 16.9174 13.1987 13.2415ZM53.7758 45.2117L53.7757 42.6669H68.9419V45.7119C68.9419 51.6195 67.8516 57.0224 65.678 61.9283L65.675 61.935L65.6722 61.9418C63.6183 66.9728 60.4747 71.6438 56.2317 75.9543C52.118 79.8851 47.2771 82.9588 41.7031 85.1742C36.0103 87.3884 29.8268 88.498 23.1479 88.498H0.500943V75.3181H23.1479C27.7351 75.3181 31.9621 74.5624 35.8231 73.0445L35.8283 73.0424C39.5635 71.525 42.8053 69.373 45.5491 66.5862L45.212 66.2543L45.5491 66.5862C48.0516 64.0444 50.1051 60.8149 51.7172 56.9107L51.7212 56.901L51.7248 56.8912C52.9678 53.4825 53.7111 49.7651 53.9586 45.7424L53.9912 45.2117H53.7758ZM142.127 17.8881L142.123 17.8849C138.346 15.0717 133.642 13.6811 128.046 13.6811H95.4778V0.687641H129.33C134.177 0.687641 138.776 1.36386 143.131 2.71364C147.11 4.18495 150.538 6.2026 153.422 8.76345C156.19 11.4542 158.355 14.5083 159.919 17.9275C161.355 21.3342 162.082 25.3691 162.082 30.0416C162.082 34.9555 161.175 39.2307 159.378 42.8813L159.375 42.8872C157.569 46.6773 155.106 49.7866 151.986 52.2237L151.979 52.2297C148.973 54.6717 145.358 56.5717 141.125 57.9234C136.516 59.278 131.973 59.9538 127.494 59.9538H110.226H109.726V60.4538V88.5H95.478V46.7727H128.046C133.886 46.7727 138.66 45.3202 142.321 42.3708L142.332 42.3619L142.343 42.3525C145.764 39.2634 147.468 35.2054 147.468 30.2269C147.468 24.7639 145.71 20.6176 142.127 17.8881ZM237.364 86.4755L237.356 86.4783L237.349 86.4814C235.332 87.2781 232.989 87.8662 230.317 88.241V74.6267C233.888 73.4845 236.731 71.7396 238.817 69.3757C242.857 65.2655 244.829 59.0228 244.829 50.7501V0.500808L258.893 0.500028V50.0041C258.893 56.5517 257.981 62.2107 256.17 66.9922L256.167 67.0009L256.164 67.0097C254.595 71.667 252.184 75.7696 248.93 79.322C245.679 82.4988 241.826 84.8833 237.364 86.4755ZM215.539 74.6312V88.4278C213.605 88.1465 211.257 87.56 208.488 86.6608C203.902 84.9432 200.114 82.4964 197.113 79.3263L197.103 79.316L197.093 79.3063C193.732 76.1366 191.263 72.1073 189.694 67.2034L189.69 67.1901L189.685 67.177C188 62.7758 187.146 57.1201 187.146 50.1906V0.686493L201.026 0.687094V50.9364C201.026 58.9748 203.005 65.2093 207.038 69.561L207.043 69.5665L207.049 69.5719C209.358 71.9172 212.192 73.6023 215.539 74.6312ZM329.894 55.7018L353.035 88.4987L336.074 88.4976L314.729 57.74L314.58 57.5251H314.319H295.029H294.529V58.0251V88.4976H280.282V44.7189H317.626C323.336 44.7189 327.873 43.3323 331.174 40.4969C334.486 37.7781 336.129 34.0224 336.129 29.2924C336.129 24.2023 334.494 20.3079 331.16 17.7037C327.858 15.1235 323.264 13.8661 317.442 13.8661H280.282V0.686208H318.729C323.456 0.686208 327.935 1.36321 332.169 2.71437C336.282 4.06582 339.646 5.9015 342.28 8.2108C345.043 10.6511 347.142 13.5143 348.581 16.8034C350.02 20.2153 350.745 24.0646 350.745 28.3597C350.745 32.0422 350.201 35.3408 349.122 38.2619L349.118 38.2736L349.114 38.2856C348.278 40.956 346.902 43.4489 344.981 45.7658L344.978 45.7701C343.305 47.8336 341.146 49.7247 338.495 51.4401C336.083 52.7854 333.304 53.9516 330.153 54.9363L329.498 55.141L329.894 55.7018Z" fill="#DEEBFF" stroke="#DEEBFF"/>
</svg>
