<?xml version="1.0" encoding="UTF-8" standalone="no"?>
<svg
   xmlns:dc="http://purl.org/dc/elements/1.1/"
   xmlns:cc="http://creativecommons.org/ns#"
   xmlns:rdf="http://www.w3.org/1999/02/22-rdf-syntax-ns#"
   xmlns:svg="http://www.w3.org/2000/svg"
   xmlns="http://www.w3.org/2000/svg"
   viewBox="0 0 231.22932 122.70213"
   height="122.70213"
   width="231.22932"
   xml:space="preserve"
   id="svg2"
   version="1.1"><metadata
     id="metadata8"><rdf:RDF><cc:Work
         rdf:about=""><dc:format>image/svg+xml</dc:format><dc:type
           rdf:resource="http://purl.org/dc/dcmitype/StillImage" /></cc:Work></rdf:RDF></metadata><defs
     id="defs6"><clipPath
       id="clipPath18"
       clipPathUnits="userSpaceOnUse"><path
         id="path16"
         d="M 0,92.027 H 173.422 V 0 H 0 Z" /></clipPath></defs><g
     transform="matrix(1.3333333,0,0,-1.3333333,0,122.70213)"
     id="g10"><g
       id="g12"><g
         clip-path="url(#clipPath18)"
         id="g14"><g
           transform="translate(141.3896,35.1785)"
           id="g20"><path
             id="path22"
             style="fill:#ee2722;fill-opacity:1;fill-rule:nonzero;stroke:none"
             d="m 0,0 h -2.352 v 13.252 c 0,0.784 -0.633,1.416 -1.417,1.416 -0.394,0 -0.749,-0.158 -1.006,-0.414 l -8.779,-8.775 -9.373,9.372 8.642,8.635 c 0.263,0.267 0.439,0.625 0.439,1.026 0,0.587 -0.358,1.072 -0.858,1.304 l -10.864,5.064 5.604,12.011 11.297,-5.268 c 0.187,-0.087 0.397,-0.14 0.619,-0.14 0.784,0 1.42,0.636 1.42,1.416 V 53.125 H 0 Z" /></g><g
           transform="translate(141.3905,35.1785)"
           id="g24"><path
             id="path26"
             style="fill:#aa1228;fill-opacity:1;fill-rule:nonzero;stroke:none"
             d="m 0,0 h 2.352 v 13.252 c 0,0.784 0.633,1.416 1.417,1.416 0.394,0 0.749,-0.158 1.006,-0.414 l 8.779,-8.775 9.373,9.372 -8.642,8.635 c -0.263,0.267 -0.439,0.625 -0.439,1.026 0,0.587 0.358,1.072 0.858,1.304 L 25.568,30.88 19.964,42.891 8.667,37.623 C 8.48,37.536 8.27,37.483 8.048,37.483 c -0.784,0 -1.42,0.636 -1.42,1.416 v 14.226 l -6.628,0 z" /></g><g
           transform="translate(26.7858,3.7241)"
           id="g28"><path
             id="path30"
             style="fill:#223142;fill-opacity:1;fill-rule:nonzero;stroke:none"
             d="M 0,0 C -3.558,0 -6.525,1.16 -8.586,2.678 -8.99,2.973 -9.535,2.692 -9.553,2.193 L -9.595,0.833 H -20.322 V 53.965 H -9.553 V 36.857 c 0,-0.488 0.542,-0.776 0.946,-0.499 1.983,1.371 4.993,2.523 8.607,2.523 10.238,0 18.578,-7.731 18.578,-19.479 C 18.578,7.429 10.238,0 0,0 m -1.062,9.703 c 4.93,0 8.646,3.939 8.646,9.699 0,5.76 -3.716,9.703 -8.646,9.703 -4.929,0 -8.645,-3.943 -8.645,-9.703 0,-5.76 3.716,-9.699 8.645,-9.699" /></g><g
           transform="translate(65.5097,3.7241)"
           id="g32"><path
             id="path34"
             style="fill:#223142;fill-opacity:1;fill-rule:nonzero;stroke:none"
             d="m 0,0 c -10.238,0 -18.578,7.429 -18.578,19.402 0,11.748 8.34,19.479 18.578,19.479 3.614,0 6.624,-1.152 8.607,-2.523 0.404,-0.277 0.946,0.011 0.946,0.499 V 53.965 H 20.322 V 0.833 H 9.595 L 9.553,2.193 C 9.535,2.692 8.99,2.973 8.586,2.678 6.525,1.16 3.558,0 0,0 m 1.062,9.703 c 4.929,0 8.645,3.939 8.645,9.699 0,5.76 -3.716,9.703 -8.645,9.703 -4.929,0 -8.646,-3.943 -8.646,-9.703 0,-5.76 3.717,-9.699 8.646,-9.699" /></g><g
           transform="translate(116.0614,18.6553)"
           id="g36"><path
             id="path38"
             style="fill:#223142;fill-opacity:1;fill-rule:nonzero;stroke:none"
             d="m 0,0 c -2.352,-3.033 -4.929,-4.85 -8.646,-4.85 -5.08,0 -9.022,3.866 -9.022,9.32 0,5.458 3.942,9.323 9.022,9.323 3.414,0 5.763,-1.743 7.886,-4.319 l 7.173,7.169 c -3.92,4.33 -8.449,7.307 -15.435,7.307 -11.149,0 -19.64,-8.336 -19.64,-19.48 0,-11.14 8.491,-19.402 19.64,-19.402 7.141,0 12.418,2.833 16.201,7.756 z" /></g></g></g></g></svg>