<?xml version="1.0" encoding="utf-8"?>
<svg xmlns="http://www.w3.org/2000/svg" fill="none" height="35" viewBox="0 0 126 35" width="126" xmlns:bx="https://boxy-svg.com"><g id="Group 1171273514"><path d="M116.659 22.4689L112.296 28.4405H108.113L114.406 20.0373L108.327 11.956H112.511L116.659 17.6415H117.445L121.558 11.956H125.741L119.662 20.0373L125.956 28.4405H121.808L117.41 22.4689H116.659ZM96.384 28.798C94.9179 28.798 93.5233 28.4405 92.2003 27.7253C90.913 26.9744 89.876 25.9731 89.0893 24.6501C88.3027 23.327 87.9093 21.861 87.9093 20.1803C87.9093 18.5712 88.3027 17.0694 89.0893 15.7821C89.876 14.459 90.913 13.4578 92.2003 12.7069C93.5233 11.9917 94.9179 11.5984 96.384 11.5984C97.6355 11.5984 98.744 11.813 99.7453 12.2778C100.7 12.6839 101.554 13.2942 102.248 14.0657H102.463L102.82 11.956H105.788V28.4405H102.82L102.463 26.3665H102.248C101.554 27.138 100.7 27.7483 99.7453 28.1544C98.744 28.5835 97.6355 28.798 96.384 28.798ZM96.8489 25.6871C97.8501 25.6871 98.744 25.4725 99.5665 25.0077C100.407 24.5593 101.112 23.8922 101.605 23.0767C102.105 22.2185 102.356 21.2531 102.356 20.1803C102.356 19.1076 102.105 18.1779 101.605 17.3555C101.104 16.4973 100.425 15.8536 99.5665 15.4245C98.7394 14.9509 97.8019 14.7042 96.8489 14.7094C95.8834 14.7094 94.9537 14.9597 94.0955 15.4245C93.273 15.8536 92.5936 16.4973 92.093 17.3555C91.5924 18.1779 91.3421 19.1076 91.3421 20.1803C91.3421 21.2531 91.5924 22.2185 92.093 23.0767C92.5824 23.8826 93.2723 24.5479 94.0955 25.0077C94.9537 25.4725 95.8834 25.6871 96.8489 25.6871ZM75.1079 28.798C73.6419 28.798 72.2473 28.4405 70.9242 27.7253C69.637 26.9744 68.6 25.9731 67.8133 24.6501C67.0266 23.327 66.6333 21.861 66.6333 20.1803C66.6333 18.5712 67.0266 17.0694 67.8133 15.7821C68.6 14.459 69.637 13.4578 70.9242 12.7069C72.2473 11.9917 73.6419 11.5984 75.1079 11.5984C76.3595 11.5984 77.4322 11.813 78.3977 12.2778C79.3463 12.6456 80.2012 13.2197 80.9007 13.9584H81.0795V5.51953H84.5123V28.4405H81.5444L81.1868 26.3665H80.9723C80.3286 27.1174 79.4704 27.7253 78.4692 28.1544C77.468 28.5835 76.3595 28.798 75.1079 28.798ZM75.5728 25.6871C76.574 25.6871 77.468 25.4725 78.2904 25.0077C79.1313 24.5593 79.8355 23.8922 80.3286 23.0767C80.8292 22.2185 81.0795 21.2531 81.0795 20.1803C81.0795 19.1076 80.8292 18.1779 80.3286 17.3555C79.828 16.4973 79.1486 15.8536 78.2904 15.4245C77.4634 14.9509 76.5258 14.7042 75.5728 14.7094C74.6073 14.7094 73.6776 14.9597 72.8194 15.4245C71.997 15.8536 71.3533 16.4973 70.817 17.3555C70.3164 18.1779 70.066 19.1076 70.066 20.1803C70.066 21.2531 70.3164 22.2185 70.817 23.0767C71.3533 23.8992 71.997 24.5428 72.8194 25.0077C73.6776 25.4725 74.6073 25.6871 75.5728 25.6871ZM63.4617 5.51953H59.7786V23.6489H59.0277L48.6221 5.51953H43.2227V28.4405H46.87V10.3111H47.6209L58.0265 28.4405H63.4617V5.51953Z" id="Vector" style="fill: rgb(0, 0, 0);"/><g id="Group 1171273403"><path d="M28.914 7.42115C29.4518 7.73102 29.7207 7.88596 29.9174 8.10166C30.0988 8.3007 30.2352 8.53643 30.3172 8.79281C30.406 9.07066 30.406 9.38057 30.406 10.0004V23.9115C30.406 24.5585 30.406 24.8819 30.272 25.0702C30.1499 25.2416 29.9591 25.3516 29.7493 25.3714C29.5189 25.3932 29.2383 25.2315 28.677 24.9081L16.6043 17.9522C16.0665 17.6423 15.7976 17.4874 15.601 17.2717C15.4195 17.0727 15.2831 16.8369 15.2011 16.5806C15.1123 16.3027 15.1123 15.9928 15.1123 15.373V1.46184C15.1123 0.814913 15.1123 0.491449 15.2463 0.303199C15.3684 0.131716 15.5592 0.0217487 15.769 0.00193811C15.9994 -0.0198096 16.28 0.141898 16.8414 0.465313L28.914 7.42115Z" fill="#3C22F3" id="Vector_2"/><g id="Mask group"><mask height="26" id="mask0_13770_1937" maskUnits="userSpaceOnUse" style="mask-type:alpha" width="16" x="15" y="0"><path d="M28.9179 7.42115C29.4557 7.73102 29.7246 7.88595 29.9213 8.10166C30.1027 8.3007 30.2391 8.53643 30.3211 8.79281C30.4099 9.07066 30.4099 9.38057 30.4099 10.0004V23.9115C30.4099 24.5584 30.4099 24.8819 30.2759 25.0702C30.1538 25.2416 29.963 25.3516 29.7532 25.3714C29.5228 25.3932 29.2422 25.2315 28.6809 24.908L16.6082 17.9522C16.0704 17.6423 15.8015 17.4874 15.6049 17.2717C15.4234 17.0727 15.287 16.8369 15.2051 16.5806C15.1162 16.3027 15.1162 15.9928 15.1162 15.373V1.46184C15.1162 0.814913 15.1162 0.491449 15.2502 0.303198C15.3723 0.131716 15.5631 0.0217487 15.7729 0.00193811C16.0033 -0.0198096 16.2839 0.141898 16.8453 0.465313L28.9179 7.42115Z" fill="#52FFCB" id="Vector_3"/></mask><g mask="url(#mask0_13770_1937)"><g id="Mask group_2"><g filter="url(#filter0_f_13770_1937)" id="Vector_4"><path d="M24.0291 9.63412C24.6097 9.96863 24.9 10.1359 25.1123 10.3687C25.3082 10.5836 25.4554 10.8381 25.5439 11.1149C25.6398 11.4148 25.6398 11.7494 25.6398 12.4185L25.6398 27.4359C25.6398 28.1343 25.6398 28.4834 25.4951 28.6867C25.3634 28.8718 25.1574 28.9905 24.9309 29.0119C24.6822 29.0354 24.3792 28.8608 23.7733 28.5117L10.7406 21.0027C10.16 20.6682 9.86971 20.5009 9.6574 20.268C9.4615 20.0532 9.31429 19.7987 9.22579 19.5219C9.12988 19.222 9.12988 18.8874 9.12988 18.2183L9.12988 3.2009C9.12988 2.50252 9.12988 2.15333 9.27456 1.95011C9.40636 1.76499 9.61233 1.64628 9.83884 1.62489C10.0875 1.60142 10.3905 1.77599 10.9964 2.12512L24.0291 9.63412Z" fill="#52FFCB" fill-opacity="0.8"/></g></g></g></g><path d="M21.3554 11.8106C21.8932 12.1204 22.1621 12.2754 22.3588 12.4911C22.5402 12.6901 22.6766 12.9258 22.7586 13.1822C22.8474 13.4601 22.8474 13.77 22.8474 14.3898V28.3009C22.8474 28.9479 22.8474 29.2713 22.7134 29.4596C22.5913 29.6311 22.4005 29.741 22.1907 29.7608C21.9603 29.7826 21.6797 29.6209 21.1184 29.2975L9.04575 22.3416C8.50794 22.0317 8.23904 21.8768 8.04237 21.6611C7.8609 21.4621 7.72454 21.2263 7.64256 20.97C7.55371 20.6921 7.55371 20.3822 7.55371 19.7624V5.85125C7.55371 5.20432 7.55371 4.88085 7.68773 4.6926C7.80982 4.52112 8.00062 4.41115 8.21045 4.39134C8.44079 4.36959 8.72145 4.5313 9.28277 4.85472L21.3554 11.8106Z" fill="#C2FF52" id="Vector_5"/><path d="M13.8017 16.1992C14.3395 16.5091 14.6084 16.664 14.8051 16.8797C14.9865 17.0788 15.1229 17.3145 15.2049 17.5709C15.2937 17.8487 15.2937 18.1586 15.2937 18.7785V32.6896C15.2937 33.3365 15.2937 33.66 15.1597 33.8482C15.0376 34.0197 14.8468 34.1297 14.637 34.1495C14.4066 34.1712 14.126 34.0095 13.5647 33.6861L1.49204 26.7303C0.954229 26.4204 0.685325 26.2655 0.488658 26.0498C0.30719 25.8507 0.170824 25.615 0.0888451 25.3586C0 25.0808 0 24.7709 0 24.151V10.2399C0 9.59299 0 9.26953 0.134023 9.08127C0.256109 8.90979 0.446911 8.79982 0.656735 8.78001C0.887076 8.75827 1.16774 8.91997 1.72906 9.24339L13.8017 16.1992Z" fill="#984FF5" id="Vector_6"/><g id="Mask group_3" opacity="0.9"><mask height="27" id="mask1_13770_1937" maskUnits="userSpaceOnUse" style="mask-type:alpha" width="17" x="-1" y="8"><path d="M1.49032 26.7295C0.952512 26.4196 0.683608 26.2647 0.486941 26.049C0.305473 25.8499 0.169107 25.6142 0.0871285 25.3578C-0.00171677 25.08 -0.0017177 24.7701 -0.00171765 24.1502L-0.00171643 10.2391C-0.00171637 9.59218 -0.00171634 9.26872 0.132307 9.08047C0.254393 8.90899 0.445195 8.79902 0.655018 8.77921C0.88536 8.75746 1.16602 8.91917 1.72734 9.24258L13.8 16.1984C14.3378 16.5083 14.6067 16.6632 14.8033 16.8789C14.9848 17.078 15.1212 17.3137 15.2031 17.5701C15.292 17.8479 15.292 18.1578 15.292 18.7777L15.292 32.6888C15.292 33.3357 15.292 33.6592 15.158 33.8474C15.0359 34.0189 14.8451 34.1289 14.6353 34.1487C14.4049 34.1704 14.1243 34.0087 13.5629 33.6853L1.49032 26.7295Z" fill="#984FF5" id="Vector_7"/></mask><g mask="url(#mask1_13770_1937)"><g filter="url(#filter1_f_13770_1937)" id="Vector_8"><path d="M9.04892 22.3408C8.51111 22.0309 8.2422 21.876 8.04553 21.6603C7.86407 21.4613 7.7277 21.2255 7.64572 20.9692C7.55688 20.6913 7.55688 20.3814 7.55688 19.7616L7.55688 5.85044C7.55688 5.20351 7.55688 4.88005 7.6909 4.6918C7.81299 4.52032 8.00379 4.41035 8.21361 4.39054C8.44395 4.36879 8.72462 4.5305 9.28594 4.85391L21.3585 11.8098C21.8964 12.1196 22.1653 12.2746 22.3619 12.4903C22.5434 12.6893 22.6798 12.925 22.7617 13.1814C22.8506 13.4593 22.8506 13.7692 22.8506 14.389L22.8506 28.3001C22.8506 28.947 22.8506 29.2705 22.7166 29.4588C22.5945 29.6302 22.4037 29.7402 22.1939 29.76C21.9635 29.7818 21.6828 29.6201 21.1215 29.2966L9.04892 22.3408Z" fill="#FFA6E6"/></g></g></g></g></g><defs><filter color-interpolation-filters="sRGB" filterUnits="userSpaceOnUse" height="47.2331" id="filter0_f_13770_1937" width="36.3517" x="-0.79109" y="-8.29817"><feFlood flood-opacity="0" result="BackgroundImageFix"/><feBlend in="SourceGraphic" in2="BackgroundImageFix" mode="normal" result="shape"/><feGaussianBlur result="effect1_foregroundBlur_13770_1937" stdDeviation="4.96049"/></filter><filter color-interpolation-filters="sRGB" filterUnits="userSpaceOnUse" height="40.9634" id="filter1_f_13770_1937" width="30.884" x="-0.23841" y="-3.40638"><feFlood flood-opacity="0" result="BackgroundImageFix"/><feBlend in="SourceGraphic" in2="BackgroundImageFix" mode="normal" result="shape"/><feGaussianBlur result="effect1_foregroundBlur_13770_1937" stdDeviation="3.89753"/></filter><bx:export><bx:file format="svg"/></bx:export></defs></svg>