<svg width="547" height="89" viewBox="0 0 547 89" fill="none" xmlns="http://www.w3.org/2000/svg">
<g clip-path="url(#clip0_2089_1716)">
<path d="M0.0189209 88.0891V0.0251465H23.6038V36.3402L58.9812 0.0251465H83.4733L49.9101 39.0638L86.1946 88.0891H58.9812L33.5821 56.3134L23.6038 66.3001V88.0891H0.0189209Z" fill="#DEEBFF"/>
<path d="M218.633 0.0251465H197.769V88.0891H222.261V40.8796L261.267 88.0891H282.131V0.0251465H257.639V46.3268L218.633 0.0251465Z" fill="#DEEBFF"/>
<path d="M369.214 0.0251465H300.273V87.9676L324.765 88.0891V57.2213H363.771V39.0638H324.765V18.1827H369.214V0.0251465Z" fill="#DEEBFF"/>
<path d="M381.006 88.0891V0.0251465H450.854V18.1827H405.498V34.5244H445.411V52.6819H405.498V69.0237L451.674 69.0224V88.0878L381.006 88.0891Z" fill="#DEEBFF"/>
<path fill-rule="evenodd" clip-rule="evenodd" d="M134.36 89.0021C199.761 89.0021 199.761 -2.69336 134.36 -2.69336C68.9594 -2.69336 68.9594 89.0021 134.36 89.0021ZM134.36 17.2748C167.016 17.2748 166.046 69.0237 134.36 69.0237C102.675 69.0237 103.519 17.2748 134.36 17.2748Z" fill="#DEEBFF"/>
<path fill-rule="evenodd" clip-rule="evenodd" d="M466.275 0.0241699V88.0879H490.767V64.4832H504.373L520.701 88.0879L547.008 88.0868L527.958 59.9438C534.479 56.7987 537.209 54.5879 540.658 49.9571C544.611 44.0903 545.304 40.2313 545.193 32.7077C544.925 25.034 544.286 19.9974 540.658 14.5502C537.029 9.10292 531.587 5.97439 530.68 5.47142L530.572 5.41205C529.406 4.7611 524.117 1.80942 517.98 0.932046C511.63 0.0241699 466.275 0.0241699 466.275 0.0241699ZM506.187 19.9974H490.767V44.5101L506.187 44.5099C516.166 44.5099 520.701 40.8784 520.701 31.7998C520.701 25.4445 515.259 19.9974 506.187 19.9974Z" fill="#DEEBFF"/>
<path d="M0.0189209 88.0891V0.0251465H23.6038V36.3402L58.9812 0.0251465H83.4733L49.9101 39.0638L86.1946 88.0891H58.9812L33.5821 56.3134L23.6038 66.3001V88.0891H0.0189209Z" stroke="#DEEBFF"/>
<path d="M218.633 0.0251465H197.769V88.0891H222.261V40.8796L261.267 88.0891H282.131V0.0251465H257.639V46.3268L218.633 0.0251465Z" stroke="#DEEBFF"/>
<path d="M369.214 0.0251465H300.273V87.9676L324.765 88.0891V57.2213H363.771V39.0638H324.765V18.1827H369.214V0.0251465Z" stroke="#DEEBFF"/>
<path d="M381.006 88.0891V0.0251465H450.854V18.1827H405.498V34.5244H445.411V52.6819H405.498V69.0237L451.674 69.0224V88.0878L381.006 88.0891Z" stroke="#DEEBFF"/>
<path fill-rule="evenodd" clip-rule="evenodd" d="M134.36 89.0021C199.761 89.0021 199.761 -2.69336 134.36 -2.69336C68.9594 -2.69336 68.9594 89.0021 134.36 89.0021ZM134.36 17.2748C167.016 17.2748 166.046 69.0237 134.36 69.0237C102.675 69.0237 103.519 17.2748 134.36 17.2748Z" stroke="#DEEBFF"/>
<path fill-rule="evenodd" clip-rule="evenodd" d="M466.275 0.0241699V88.0879H490.767V64.4832H504.373L520.701 88.0879L547.008 88.0868L527.958 59.9438C534.479 56.7987 537.209 54.5879 540.658 49.9571C544.611 44.0903 545.304 40.2313 545.193 32.7077C544.925 25.034 544.286 19.9974 540.658 14.5502C537.029 9.10292 531.587 5.97439 530.68 5.47142L530.572 5.41205C529.406 4.7611 524.117 1.80942 517.98 0.932046C511.63 0.0241699 466.275 0.0241699 466.275 0.0241699ZM506.187 19.9974H490.767V44.5101L506.187 44.5099C516.166 44.5099 520.701 40.8784 520.701 31.7998C520.701 25.4445 515.259 19.9974 506.187 19.9974Z" stroke="#DEEBFF"/>
</g>
<defs>
<clipPath id="clip0_2089_1716">
<rect width="547" height="89" fill="white"/>
</clipPath>
</defs>
</svg>
