<svg width="821" height="328" viewBox="0 0 821 328" fill="none" xmlns="http://www.w3.org/2000/svg">
<path d="M391.13 30.9883C380.348 49.4016 370.015 67.8149 359.233 86.2282C358.784 85.7791 358.334 85.33 358.334 84.8809C353.393 76.797 348.9 68.7131 343.958 60.1801C343.06 58.8328 343.06 57.4855 343.958 56.1382C348.451 48.5034 352.943 40.8686 356.987 33.2338C357.885 31.4374 359.233 30.9883 361.479 30.9883C370.464 30.9883 379.45 30.9883 388.435 30.9883C389.333 30.9883 389.783 30.9883 391.13 30.9883Z" fill="#DEEBFF"/>
<path d="M461.664 30.5391C462.113 31.4373 462.563 31.8864 463.012 32.3355C467.504 40.4194 471.997 48.0542 476.939 56.1381C477.837 57.9345 477.837 59.2818 476.939 60.6291C472.446 68.2639 467.954 75.8987 463.91 83.5335C463.012 84.8808 462.113 85.779 460.766 85.779C451.331 85.779 441.447 85.779 432.013 85.779C431.564 85.779 431.564 85.779 430.665 85.779C440.1 67.3657 450.882 48.9524 461.664 30.5391Z" fill="#DEEBFF"/>
<path d="M396.521 88.9229C417.637 88.9229 438.752 88.9229 459.867 88.9229C458.519 91.6175 457.172 93.863 455.375 96.5576C451.781 102.396 448.186 108.683 445.042 114.522C444.143 115.869 443.245 116.318 441.897 116.318C432.912 116.318 423.477 116.318 414.492 116.318C413.144 116.318 411.796 115.869 411.347 114.522C406.854 106.438 401.913 98.3541 397.42 90.2702C396.971 90.2702 396.971 89.8211 396.521 88.9229Z" fill="#DEEBFF"/>
<path d="M411.797 0C412.695 0 413.145 0 414.043 0C423.028 0 432.014 0 440.999 0C442.796 0 444.144 0.898211 445.042 2.24553C449.535 9.88032 453.578 17.5151 458.071 25.1499C458.969 26.4972 458.969 27.8445 458.071 29.1919C453.129 37.7249 448.187 46.2579 443.694 54.3418C443.694 54.3418 443.694 54.3418 443.245 54.7909C432.912 36.8267 422.579 18.4133 411.797 0Z" fill="#DEEBFF"/>
<path d="M361.03 27.3954C361.48 26.4972 361.48 26.0481 361.929 25.599C366.421 17.9642 370.914 9.88032 375.407 2.24553C376.305 0.449105 377.653 0 379.45 0C387.986 0 396.971 0 405.507 0C407.304 0 408.652 0.449105 409.55 2.24553C414.492 10.7785 419.434 18.8624 424.376 27.8445C403.261 27.3954 382.146 27.3954 361.03 27.3954Z" fill="#DEEBFF"/>
<path d="M408.652 116.768C407.304 116.768 406.406 116.768 405.058 116.768C396.073 116.768 387.537 116.768 378.551 116.768C377.204 116.768 375.856 116.319 375.407 114.972C370.914 107.337 366.421 99.7022 361.929 91.6183C361.03 90.271 361.03 88.9236 361.929 87.1272C366.421 79.0433 370.914 70.9594 375.856 62.8755C376.305 62.4264 376.305 61.9773 376.754 61.0791C387.537 79.9415 397.87 97.9057 408.652 116.768Z" fill="#DEEBFF"/>
<path d="M47.0598 236.957C40.2125 236.957 33.8631 238.089 28.0119 240.354C22.2849 242.619 17.3052 245.765 13.0722 249.791C8.96368 253.566 5.72696 258.347 3.3615 264.136C1.36951 269.043 0.249071 274.391 0 280.179V285.841H16.4334V280.179C16.6823 275.901 17.3672 272.44 18.4876 269.798C19.9816 266.149 22.0358 262.878 24.6501 259.983C27.7625 257.089 30.9995 254.95 34.3607 253.566C38.2201 252.056 42.4532 251.301 47.0595 251.301H70.5893V236.957H47.0598ZM54.1567 279.424L54.1569 283.01H54.3436C54.0947 287.036 53.3477 290.748 52.1027 294.146C50.4842 298.047 48.43 301.255 45.9402 303.772C43.2011 306.54 39.9644 308.679 36.2295 310.189C32.3701 311.699 28.1371 312.454 23.5308 312.454H0.000958565V326.799H23.5308C30.3781 326.799 36.7274 325.666 42.5787 323.401C48.3057 321.136 53.2854 317.99 57.5184 313.964C61.8757 309.56 65.1125 304.779 67.2288 299.62C69.4698 294.586 70.5903 289.05 70.5903 283.01V279.424H54.1567ZM163.028 254.699C161.41 251.176 159.169 248.03 156.305 245.262C153.317 242.62 149.769 240.544 145.661 239.034C141.179 237.65 136.449 236.957 131.469 236.957H96.5485V251.113H130.163C135.766 251.113 140.434 252.497 144.169 255.266C147.655 257.908 149.398 261.935 149.398 267.345C149.398 272.253 147.717 276.216 144.356 279.236C140.746 282.13 136.015 283.577 130.164 283.577H96.5487V326.801H112.048V297.923H129.602C134.209 297.923 138.877 297.231 143.608 295.847C147.966 294.463 151.7 292.513 154.813 289.996C158.05 287.48 160.602 284.271 162.469 280.37C164.337 276.595 165.271 272.191 165.271 267.158C165.271 262.377 164.522 258.223 163.028 254.699ZM248.37 236.768V288.107C248.37 296.411 246.378 302.577 242.394 306.604C240.278 308.995 237.352 310.756 233.617 311.889V326.611C236.605 326.233 239.219 325.604 241.46 324.723C246.067 323.087 250.051 320.634 253.412 317.362C256.773 313.713 259.263 309.498 260.882 304.717C262.749 299.809 263.683 294.021 263.683 287.352V236.768L248.37 236.768ZM204.859 236.957V288.295C204.859 296.348 206.851 302.514 210.835 306.792C213.2 309.183 216.126 310.882 219.612 311.888V326.799C217.496 326.548 214.881 325.918 211.769 324.912C207.038 323.15 203.116 320.634 200.004 317.362C196.518 314.091 193.966 309.939 192.347 304.905C190.604 300.375 189.733 294.587 189.733 287.541V236.956L204.859 236.957ZM359.854 326.799L335.765 292.824C339.001 291.818 341.865 290.622 344.355 289.238C347.094 287.477 349.335 285.527 351.077 283.387C353.069 280.997 354.501 278.417 355.373 275.649C356.493 272.629 357.054 269.231 357.054 265.457C357.054 261.053 356.307 257.089 354.813 253.566C353.319 250.168 351.14 247.211 348.277 244.695C345.537 242.304 342.052 240.416 337.819 239.032C333.461 237.648 328.855 236.956 324 236.956H284.409V251.3H322.692C328.543 251.3 333.087 252.559 336.324 255.075C339.561 257.592 341.179 261.367 341.179 266.4C341.179 271.056 339.561 274.705 336.324 277.347C333.087 280.116 328.605 281.5 322.878 281.5H284.409V326.798H299.908V295.466H319.516L341.365 326.798L359.854 326.799Z" fill="#DEEBFF"/>
<path d="M449.302 326.988V237.145L433.802 237.187V282.161H421.944V296.317H433.802V326.988H449.302Z" fill="#DEEBFF"/>
<path d="M396.08 326.988H380.58V282.161V237.334L396.08 237.292V282.161H407.938V296.317H396.08V326.988Z" fill="#DEEBFF"/>
<path d="M540.432 253.754C541.926 257.277 542.673 261.241 542.673 265.645V326.988L526.799 326.988V295.655H505.136H485.528V326.987H470.028V281.688V267.344H485.528V281.688H508.498H526.799V266.588C526.799 261.555 525.18 257.78 521.943 255.264C518.706 252.747 514.162 251.489 508.311 251.489H470.028V237.144H509.619C514.474 237.144 519.08 237.836 523.438 239.22C527.671 240.605 531.157 242.492 533.896 244.883C536.759 247.4 538.938 250.356 540.432 253.754Z" fill="#DEEBFF"/>
<path d="M591.41 240.195C597.261 237.93 603.611 236.798 610.458 236.798H633.988V251.143H610.458C605.851 251.143 601.618 251.898 597.759 253.408C594.398 254.792 591.161 256.931 588.048 259.825C586.105 261.976 584.471 264.335 583.147 266.904H565.692C566.015 265.911 566.371 264.936 566.76 263.977C569.125 258.189 572.362 253.407 576.47 249.632C580.703 245.606 585.683 242.46 591.41 240.195Z" fill="#DEEBFF"/>
<path d="M591.41 323.716C597.261 325.981 603.611 327.113 610.458 327.113H633.988V312.769H610.458C605.851 312.769 601.618 312.014 597.759 310.504C594.398 309.12 591.161 306.98 588.048 304.086C585.434 301.192 583.38 297.921 581.886 294.272C580.765 291.629 580.081 288.169 579.832 283.891V281.248H563.398L563.398 283.893C563.648 289.68 564.768 295.027 566.76 299.934C569.125 305.723 572.362 310.504 576.47 314.279C580.703 318.305 585.683 321.451 591.41 323.716Z" fill="#DEEBFF"/>
<path d="M654.425 327.112V281.813L654.425 267.469H669.924V281.813L678.83 281.813L711.381 237.271L729.87 237.27L697.36 281.261L707.654 295.78L729.87 327.113L711.381 327.112L689.533 295.78H669.925V327.112H654.425Z" fill="#DEEBFF"/>
<path d="M669.924 251.614H654.425L654.425 237.27H669.924V251.614Z" fill="#DEEBFF"/>
<path d="M778.319 240.668C784.171 238.403 790.52 237.271 797.367 237.271H820.897V251.616H797.367C792.761 251.616 788.528 252.371 784.668 253.881C781.307 255.265 778.07 257.404 774.957 260.298C772.343 263.192 770.289 266.463 768.795 270.112C767.675 272.755 766.99 276.215 766.741 280.493V286.156H750.307V280.493C750.556 274.705 751.677 269.358 753.669 264.45C756.034 258.662 759.271 253.88 763.38 250.106C767.613 246.079 772.592 242.933 778.319 240.668Z" fill="#DEEBFF"/>
<path d="M804.464 283.324L804.464 279.738H820.898V283.324C820.898 289.364 819.777 294.901 817.536 299.934C815.42 305.093 812.183 309.874 807.826 314.278C803.593 318.305 798.613 321.451 792.886 323.716C787.035 325.981 780.685 327.113 773.838 327.113H750.308V312.768H773.838C778.445 312.768 782.678 312.014 786.537 310.504C790.272 308.994 793.509 306.855 796.248 304.086C798.737 301.569 800.792 298.361 802.41 294.46C803.655 291.063 804.402 287.351 804.651 283.324H804.464Z" fill="#DEEBFF"/>
</svg>
