<svg width="1000" height="117" viewBox="0 0 1000 117" fill="none" xmlns="http://www.w3.org/2000/svg">
<path d="M226.161 14.1834C219.314 14.1834 212.965 15.3155 207.113 17.5805C201.386 19.8454 196.407 22.9911 192.174 27.0178C188.065 30.7926 184.829 35.574 182.463 41.3623C180.471 46.2698 179.351 51.6174 179.102 57.4054V63.0679H195.535V57.4054C195.784 53.1271 196.469 49.667 197.589 47.0245C199.083 43.3755 201.137 40.1041 203.752 37.21C206.864 34.316 210.101 32.177 213.462 30.7929C217.322 29.2829 221.555 28.528 226.161 28.528H249.691V14.1834H226.161ZM233.258 56.6505L233.258 60.2364H233.445C233.196 64.2628 232.449 67.9749 231.204 71.3724C229.586 75.2731 227.532 78.4817 225.042 80.9984C222.303 83.7668 219.066 85.9058 215.331 87.4158C211.472 88.9257 207.239 89.6807 202.632 89.6807H179.103V104.025H202.632C209.48 104.025 215.829 102.893 221.68 100.628C227.407 98.3628 232.387 95.217 236.62 91.1904C240.977 86.7864 244.214 82.0051 246.33 76.8461C248.571 71.8128 249.692 66.2765 249.692 60.2367V56.6505H233.258ZM342.13 31.9259C340.511 28.4026 338.27 25.2568 335.407 22.4886C332.419 19.8461 328.871 17.7701 324.763 16.2602C320.281 14.8761 315.55 14.184 310.57 14.184H275.65V28.3398H309.265C314.867 28.3398 319.536 29.7239 323.271 32.4923C326.757 35.1348 328.5 39.1612 328.5 44.5719C328.5 49.4793 326.819 53.4429 323.458 56.4628C319.847 59.3568 315.117 60.804 309.265 60.804H275.65V104.027H291.15V75.1497H308.704C313.31 75.1497 317.979 74.4576 322.71 73.0735C327.067 71.6895 330.802 69.7391 333.914 67.2226C337.151 64.7062 339.704 61.4974 341.571 57.5966C343.438 53.8218 344.372 49.4178 344.372 44.3845C344.372 39.6031 343.624 35.4493 342.13 31.9259ZM427.471 13.995V65.3333C427.471 73.638 425.479 79.8037 421.496 83.8303C419.379 86.2211 416.453 87.9828 412.719 89.1151V103.837C415.707 103.46 418.321 102.831 420.562 101.95C425.168 100.314 429.152 97.8604 432.514 94.5888C435.875 90.9398 438.365 86.7244 439.983 81.9431C441.851 77.0356 442.784 71.2476 442.784 64.5787V13.9941L427.471 13.995ZM383.96 14.1834V65.5217C383.96 73.575 385.952 79.7406 389.936 84.0187C392.302 86.4096 395.227 88.1082 398.714 89.1149V104.026C396.597 103.774 393.983 103.145 390.87 102.138C386.139 100.377 382.218 97.8604 379.105 94.589C375.619 91.3176 373.067 87.1651 371.449 82.1317C369.706 77.6019 368.834 71.8136 368.834 64.7673V14.1828L383.96 14.1834ZM538.956 104.026L514.866 70.0509C518.103 69.0443 520.966 67.849 523.456 66.4649C526.195 64.7034 528.436 62.7531 530.179 60.614C532.171 58.2232 533.603 55.6438 534.474 52.8754C535.595 49.8555 536.155 46.4579 536.155 42.6831C536.155 38.2791 535.408 34.3155 533.914 30.7922C532.42 27.3946 530.241 24.4378 527.378 21.9211C524.639 19.5303 521.153 17.6428 516.92 16.2587C512.563 14.8746 507.957 14.1825 503.101 14.1825H463.51V28.527H501.794C507.645 28.527 512.189 29.7854 515.426 32.3019C518.662 34.8184 520.281 38.5932 520.281 43.6265C520.281 48.2823 518.663 51.9313 515.426 54.5738C512.189 57.3422 507.707 58.7263 501.98 58.7263H463.51V104.025H479.01V72.6927H498.618L520.467 104.025L538.956 104.026Z" fill="#DEEBFF"/>
<path d="M628.404 104.214V14.3712L612.904 14.414V59.3877H601.045V73.5435H612.904V104.214H628.404Z" fill="#DEEBFF"/>
<path d="M575.181 104.214H559.682V59.3877V14.561L575.181 14.5182V59.3877H587.04V73.5435H575.181V104.214Z" fill="#DEEBFF"/>
<path d="M719.533 30.9805C721.027 34.5039 721.774 38.4674 721.774 42.8714V104.214L705.9 104.214V72.8811H684.237H664.629V104.213H649.129V58.9146V44.5701H664.629V58.9146H687.599H705.9V43.8149C705.9 38.7816 704.281 35.0068 701.045 32.4903C697.808 29.9737 693.264 28.7154 687.413 28.7154H649.129V14.3709H688.72C693.576 14.3709 698.182 15.063 702.539 16.4471C706.772 17.8311 710.258 19.7187 712.997 22.1095C715.861 24.6261 718.039 27.583 719.533 30.9805Z" fill="#DEEBFF"/>
<path d="M770.512 17.4217C776.363 15.1567 782.712 14.0246 789.56 14.0246H813.089V28.3692H789.559C784.953 28.3692 780.72 29.1241 776.861 30.6341C773.499 32.0182 770.262 34.1572 767.15 37.0513C765.207 39.2024 763.573 41.562 762.249 44.1303H744.794C745.116 43.1379 745.472 42.1623 745.861 41.2035C748.227 35.4152 751.464 30.6338 755.572 26.859C759.805 22.8324 764.785 19.6866 770.512 17.4217Z" fill="#DEEBFF"/>
<path d="M770.512 100.943C776.363 103.208 782.712 104.34 789.56 104.34H813.089V89.9951H789.559C784.953 89.9951 780.72 89.2401 776.861 87.7302C773.499 86.3461 770.262 84.207 767.15 81.313C764.536 78.419 762.481 75.1476 760.987 71.4986C759.867 68.856 759.182 65.396 758.933 61.1176V58.4748H742.5L742.5 61.1196C742.749 66.9069 743.87 72.2539 745.861 77.1608C748.227 82.9491 751.464 87.7304 755.572 91.5053C759.805 95.5319 764.785 98.6777 770.512 100.943Z" fill="#DEEBFF"/>
<path d="M833.526 104.338V59.0399L833.526 44.6954H849.026V59.04L857.932 59.0399L890.483 14.4973L908.972 14.4962L876.461 58.4876L886.755 73.0064L908.972 104.34L890.483 104.338L868.634 73.0064H849.026V104.338H833.526Z" fill="#DEEBFF"/>
<path d="M849.026 28.8407H833.526L833.526 14.4962H849.026V28.8407Z" fill="#DEEBFF"/>
<path d="M957.421 17.8948C963.272 15.6299 969.621 14.4978 976.469 14.4978H999.998V28.8423H976.469C971.862 28.8423 967.629 29.5973 963.77 31.1072C960.408 32.4913 957.171 34.6304 954.059 37.5244C951.445 40.4184 949.391 43.6898 947.897 47.3388C946.776 49.9814 946.091 53.4415 945.842 57.7198V63.3823H929.409V57.7198C929.658 51.9318 930.778 46.5841 932.77 41.6767C935.136 35.8884 938.373 31.107 942.481 27.3321C946.714 23.3055 951.694 20.1597 957.421 17.8948Z" fill="#DEEBFF"/>
<path d="M983.566 60.5508L983.566 56.9648H999.999V60.551C999.999 66.5908 998.879 72.1271 996.638 77.1605C994.521 82.3194 991.285 87.1008 986.927 91.5048C982.694 95.5314 977.715 98.6771 971.988 100.942C966.136 103.207 959.787 104.34 952.94 104.34H929.41V89.9951H952.94C957.546 89.9951 961.779 89.2401 965.638 87.7301C969.373 86.2202 972.61 84.0811 975.349 81.3127C977.839 78.7961 979.893 75.5875 981.512 71.6867C982.757 68.2892 983.504 64.5772 983.753 60.5508H983.566Z" fill="#DEEBFF"/>
<path d="M47.8453 30.9941C37.063 49.4075 26.73 67.8208 15.9478 86.2341C15.4985 85.785 15.0493 85.3359 15.0493 84.8868C10.1074 76.8029 5.61478 68.719 0.672915 60.186C-0.225607 58.8387 -0.225607 57.4914 0.672915 56.144C5.16552 48.5092 9.65813 40.8745 13.7015 33.2397C14.6 31.4432 15.9478 30.9941 18.1941 30.9941C27.1793 30.9941 36.1645 30.9941 45.1497 30.9941C46.0482 30.9941 46.4975 30.9941 47.8453 30.9941Z" fill="#DEEBFF"/>
<path d="M118.379 30.5449C118.828 31.4431 119.277 31.8922 119.727 32.3413C124.219 40.4252 128.712 48.06 133.654 56.1439C134.552 57.9403 134.552 59.2877 133.654 60.635C129.161 68.2698 124.669 75.9046 120.625 83.5394C119.727 84.8867 118.828 85.7849 117.48 85.7849C108.046 85.7849 98.1621 85.7849 88.7277 85.7849C88.2784 85.7849 88.2784 85.7849 87.3799 85.7849C96.8144 67.3716 107.597 48.9582 118.379 30.5449Z" fill="#DEEBFF"/>
<path d="M53.2363 88.9287C74.3516 88.9287 95.4668 88.9287 116.582 88.9287C115.234 91.6233 113.887 93.8689 112.089 96.5635C108.495 102.402 104.901 108.689 101.756 114.528C100.858 115.875 99.9594 116.324 98.6117 116.324C89.6264 116.324 80.192 116.324 71.2067 116.324C69.859 116.324 68.5112 115.875 68.0619 114.528C63.5693 106.444 58.6275 98.3599 54.1348 90.276C53.6856 90.276 53.6856 89.8269 53.2363 88.9287Z" fill="#DEEBFF"/>
<path d="M68.5117 0.00585938C69.4102 0.00585938 69.8595 0.00585938 70.758 0.00585938C79.7432 0.00585938 88.7284 0.00585938 97.7137 0.00585938C99.5107 0.00585938 100.858 0.90407 101.757 2.25139C106.25 9.88618 110.293 17.521 114.786 25.1558C115.684 26.5031 115.684 27.8504 114.786 29.1977C109.844 37.7307 104.902 46.2637 100.409 54.3476C100.409 54.3476 100.409 54.3476 99.96 54.7967C89.627 36.8325 79.294 18.4192 68.5117 0.00585938Z" fill="#DEEBFF"/>
<path d="M17.7451 27.4013C18.1944 26.5031 18.1944 26.054 18.6436 25.6049C23.1362 17.9701 27.6288 9.88618 32.1215 2.25139C33.02 0.454965 34.3678 0.00585938 36.1648 0.00585938C44.7008 0.00585938 53.686 0.00585938 62.2219 0.00585938C64.019 0.00585938 65.3667 0.454965 66.2653 2.25139C71.2071 10.7844 76.149 18.8683 81.0909 27.8504C59.9756 27.4013 38.8604 27.4013 17.7451 27.4013Z" fill="#DEEBFF"/>
<path d="M65.3667 116.774C64.019 116.774 63.1204 116.774 61.7727 116.774C52.7874 116.774 44.2515 116.774 35.2663 116.774C33.9185 116.774 32.5707 116.325 32.1214 114.978C27.6288 107.343 23.1362 99.708 18.6436 91.6241C17.7451 90.2768 17.7451 88.9295 18.6436 87.1331C23.1362 79.0492 27.6288 70.9653 32.5707 62.8814C33.02 62.4323 33.02 61.9832 33.4692 61.085C44.2515 79.9474 54.5845 97.9116 65.3667 116.774Z" fill="#DEEBFF"/>
</svg>
